<?xml version="1.0" encoding="UTF-8" standalone="no"?>
<!DOCTYPE svg PUBLIC "-//W3C//DTD SVG 1.1//EN"
 "http://www.w3.org/Graphics/SVG/1.1/DTD/svg11.dtd">
<!-- Generated by graphviz version 12.1.0 (20240811.2233)
 -->
<!-- Title: FSM Pages: 1 -->
<svg width="720pt" height="109pt"
 viewBox="0.00 0.00 720.00 108.75" xmlns="http://www.w3.org/2000/svg" xmlns:xlink="http://www.w3.org/1999/xlink">
<g id="graph0" class="graph" transform="scale(0.563898 0.563898) rotate(0) translate(4 188.85)">
<title>FSM</title>
<polygon fill="white" stroke="none" points="-4,4 -4,-188.85 1272.83,-188.85 1272.83,4 -4,4"/>
<!-- IDLE -->
<g id="node1" class="node">
<title>IDLE</title>
<ellipse fill="none" stroke="black" cx="145.72" cy="-37.85" rx="33.02" ry="33.02"/>
<text text-anchor="middle" x="145.72" y="-33.65" font-family="Times,serif" font-size="14.00">IDLE</text>
</g>
<!-- NONSEQ -->
<g id="node3" class="node">
<title>NONSEQ</title>
<ellipse fill="none" stroke="black" cx="380.83" cy="-99.85" rx="50.2" ry="50.2"/>
<text text-anchor="middle" x="380.83" y="-95.65" font-family="Times,serif" font-size="14.00">NONSEQ</text>
</g>
<!-- IDLE&#45;&gt;NONSEQ -->
<g id="edge1" class="edge">
<title>IDLE&#45;&gt;NONSEQ</title>
<path fill="none" stroke="black" d="M178.16,-46.21C214.67,-55.92 275.67,-72.15 321.05,-84.21"/>
<polygon fill="black" stroke="black" points="319.9,-87.53 330.47,-86.72 321.7,-80.77 319.9,-87.53"/>
<text text-anchor="middle" x="254.68" y="-85.73" font-family="Times,serif" font-size="14.00">HREADY &amp;&amp; work</text>
</g>
<!-- BUSY -->
<g id="node2" class="node">
<title>BUSY</title>
<ellipse fill="none" stroke="black" cx="786.53" cy="-139.85" rx="36.8" ry="36.8"/>
<text text-anchor="middle" x="786.53" y="-135.65" font-family="Times,serif" font-size="14.00">BUSY</text>
</g>
<!-- SEQ -->
<g id="node4" class="node">
<title>SEQ</title>
<ellipse fill="none" stroke="black" cx="1126.37" cy="-83.85" rx="29.28" ry="29.28"/>
<text text-anchor="middle" x="1126.37" y="-79.65" font-family="Times,serif" font-size="14.00">SEQ</text>
</g>
<!-- BUSY&#45;&gt;SEQ -->
<g id="edge8" class="edge">
<title>BUSY&#45;&gt;SEQ</title>
<path fill="none" stroke="black" d="M823.47,-143.64C879.92,-148.2 991.92,-151.63 1079.09,-118.85 1084.6,-116.77 1090.01,-113.82 1095.08,-110.5"/>
<polygon fill="black" stroke="black" points="1097.07,-113.38 1103.11,-104.67 1092.96,-107.71 1097.07,-113.38"/>
<text text-anchor="middle" x="977.4" y="-150.72" font-family="Times,serif" font-size="14.00">HREADY &amp;&amp; work &#160;&#160;&#160;&#160;&#160;&#160;&#160;&#160;&#160;&#160;&#160;&#160;&#160;&#160;&#160;&#160;&#160;&#160;&#160;&#160;&#160;&#160;&#160;&#160;</text>
</g>
<!-- NONSEQ&#45;&gt;BUSY -->
<g id="edge4" class="edge">
<title>NONSEQ&#45;&gt;BUSY</title>
<path fill="none" stroke="black" d="M430.93,-104.71C509.18,-112.47 661.18,-127.53 738.26,-135.16"/>
<polygon fill="black" stroke="black" points="737.72,-138.63 748.02,-136.13 738.41,-131.66 737.72,-138.63"/>
<text text-anchor="middle" x="573.19" y="-134.38" font-family="Times,serif" font-size="14.00">!work</text>
</g>
<!-- NONSEQ&#45;&gt;NONSEQ -->
<g id="edge3" class="edge">
<title>NONSEQ&#45;&gt;NONSEQ</title>
<path fill="none" stroke="black" d="M357.23,-144.45C357.93,-157.72 365.8,-168.05 380.83,-168.05 391.28,-168.05 398.26,-163.06 401.79,-155.55"/>
<polygon fill="black" stroke="black" points="405.17,-156.46 404.08,-145.92 398.36,-154.84 405.17,-156.46"/>
<text text-anchor="middle" x="380.83" y="-172.25" font-family="Times,serif" font-size="14.00">!HREADY </text>
</g>
<!-- NONSEQ&#45;&gt;SEQ -->
<g id="edge2" class="edge">
<title>NONSEQ&#45;&gt;SEQ</title>
<path fill="none" stroke="black" d="M431.22,-95.41C496.28,-89.81 614.28,-80.5 715.36,-77.05 778.59,-74.89 794.44,-76.36 857.7,-77.05 956.11,-78.11 980.72,-78.66 1079.09,-81.85 1081.26,-81.92 1083.48,-82 1085.73,-82.08"/>
<polygon fill="black" stroke="black" points="1085.34,-85.57 1095.47,-82.46 1085.61,-78.57 1085.34,-85.57"/>
<text text-anchor="middle" x="786.53" y="-81.25" font-family="Times,serif" font-size="14.00">HREADY &amp;&amp; HBURST</text>
</g>
<!-- SEQ&#45;&gt;IDLE -->
<g id="edge7" class="edge">
<title>SEQ&#45;&gt;IDLE</title>
<path fill="none" stroke="black" d="M1097.63,-76.38C1091.56,-74.99 1085.14,-73.71 1079.09,-72.85 793.59,-32.22 719.28,-49.48 431.03,-40.85 345.81,-38.3 246.17,-37.82 190.36,-37.78"/>
<polygon fill="black" stroke="black" points="190.65,-34.28 180.65,-37.78 190.65,-41.28 190.65,-34.28"/>
<text text-anchor="middle" x="573.19" y="-48.31" font-family="Times,serif" font-size="14.00">HREADY &amp;&amp; burst_counter &gt;= burst_limit</text>
</g>
<!-- SEQ&#45;&gt;BUSY -->
<g id="edge6" class="edge">
<title>SEQ&#45;&gt;BUSY</title>
<path fill="none" stroke="black" d="M1096.81,-82.89C1049.93,-81.99 954.03,-82.97 875.7,-102.05 860.36,-105.78 844.28,-111.94 830.12,-118.21"/>
<polygon fill="black" stroke="black" points="828.72,-115 821.09,-122.36 831.64,-121.37 828.72,-115"/>
<text text-anchor="middle" x="977.4" y="-106.25" font-family="Times,serif" font-size="14.00">!work</text>
</g>
<!-- SEQ&#45;&gt;SEQ -->
<g id="edge5" class="edge">
<title>SEQ&#45;&gt;SEQ</title>
<path fill="none" stroke="black" d="M1102.7,-101.31C1092.58,-115.89 1100.47,-131.13 1126.37,-131.13 1145.99,-131.13 1155.27,-122.38 1154.22,-111.79"/>
<polygon fill="black" stroke="black" points="1157.55,-110.7 1150.6,-102.71 1151.05,-113.3 1157.55,-110.7"/>
<text text-anchor="middle" x="1126.37" y="-135.33" font-family="Times,serif" font-size="14.00"> &#160;&#160;&#160;&#160;&#160;&#160;&#160;&#160;&#160;&#160;&#160;&#160;&#160;&#160;&#160;!HREADY || burst_counter &lt; burst_limit</text>
</g>
<!-- default -->
<g id="node5" class="node">
<title>default</title>
<ellipse fill="none" stroke="black" cx="37.85" cy="-37.85" rx="37.85" ry="37.85"/>
<text text-anchor="middle" x="37.85" y="-33.65" font-family="Times,serif" font-size="14.00">default</text>
</g>
<!-- default&#45;&gt;IDLE -->
<g id="edge9" class="edge">
<title>default&#45;&gt;IDLE</title>
<path fill="none" stroke="black" d="M76.17,-37.85C84.19,-37.85 92.72,-37.85 100.95,-37.85"/>
<polygon fill="black" stroke="black" points="100.79,-41.35 110.79,-37.85 100.79,-34.35 100.79,-41.35"/>
</g>
</g>
</svg>
