<?xml version="1.0" encoding="UTF-8" standalone="no"?>
<!DOCTYPE svg PUBLIC "-//W3C//DTD SVG 1.1//EN"
 "http://www.w3.org/Graphics/SVG/1.1/DTD/svg11.dtd">
<!-- Generated by graphviz version 12.1.0 (20240811.2233)
 -->
<!-- Title: FSM Pages: 1 -->
<svg width="576pt" height="112pt"
 viewBox="0.00 0.00 576.00 111.54" xmlns="http://www.w3.org/2000/svg" xmlns:xlink="http://www.w3.org/1999/xlink">
<g id="graph0" class="graph" transform="scale(0.538115 0.538115) rotate(0) translate(4 203.28)">
<title>FSM</title>
<polygon fill="white" stroke="none" points="-4,4 -4,-203.28 1066.4,-203.28 1066.4,4 -4,4"/>
<!-- IDLE -->
<g id="node1" class="node">
<title>IDLE</title>
<ellipse fill="none" stroke="black" cx="54.52" cy="-45.28" rx="33.02" ry="33.02"/>
<ellipse fill="none" stroke="black" cx="54.52" cy="-45.28" rx="37.02" ry="37.02"/>
<text text-anchor="middle" x="54.52" y="-41.08" font-family="Times,serif" font-size="14.00">IDLE</text>
</g>
<!-- IDLE&#45;&gt;IDLE -->
<g id="edge8" class="edge">
<title>IDLE&#45;&gt;IDLE</title>
<path fill="none" stroke="black" d="M33.55,-76.11C31.97,-89.18 38.96,-100.3 54.52,-100.3 65.21,-100.3 71.86,-95.04 74.45,-87.51"/>
<polygon fill="black" stroke="black" points="77.93,-87.9 75.34,-77.62 70.96,-87.27 77.93,-87.9"/>
<text text-anchor="middle" x="54.52" y="-104.5" font-family="Times,serif" font-size="14.00">!HREADY || !work</text>
</g>
<!-- NONSEQ -->
<g id="node2" class="node">
<title>NONSEQ</title>
<ellipse fill="none" stroke="black" cx="364.48" cy="-114.28" rx="50.2" ry="50.2"/>
<text text-anchor="middle" x="364.48" y="-110.08" font-family="Times,serif" font-size="14.00">NONSEQ</text>
</g>
<!-- IDLE&#45;&gt;NONSEQ -->
<g id="edge1" class="edge">
<title>IDLE&#45;&gt;NONSEQ</title>
<path fill="none" stroke="black" d="M91.14,-53.26C143.27,-64.94 240.97,-86.83 304.08,-100.97"/>
<polygon fill="black" stroke="black" points="303.05,-104.33 313.57,-103.1 304.58,-97.5 303.05,-104.33"/>
<text text-anchor="middle" x="167.48" y="-86.05" font-family="Times,serif" font-size="14.00">HREADY &amp;&amp; work</text>
</g>
<!-- NONSEQ&#45;&gt;NONSEQ -->
<g id="edge9" class="edge">
<title>NONSEQ&#45;&gt;NONSEQ</title>
<path fill="none" stroke="black" d="M328.54,-149.72C323.84,-167.08 335.82,-182.48 364.48,-182.48 386.65,-182.48 398.84,-173.27 401.05,-161.06"/>
<polygon fill="black" stroke="black" points="404.55,-161.02 400.51,-151.23 397.57,-161.41 404.55,-161.02"/>
<text text-anchor="middle" x="364.48" y="-186.68" font-family="Times,serif" font-size="14.00">!HREADY</text>
</g>
<!-- SEQ -->
<g id="node3" class="node">
<title>SEQ</title>
<ellipse fill="none" stroke="black" cx="776.66" cy="-29.28" rx="29.28" ry="29.28"/>
<text text-anchor="middle" x="776.66" y="-25.08" font-family="Times,serif" font-size="14.00">SEQ</text>
</g>
<!-- NONSEQ&#45;&gt;SEQ -->
<g id="edge2" class="edge">
<title>NONSEQ&#45;&gt;SEQ</title>
<path fill="none" stroke="black" d="M414.14,-104.2C496.5,-87.13 661.7,-52.89 736.85,-37.32"/>
<polygon fill="black" stroke="black" points="737.12,-40.84 746.2,-35.38 735.7,-33.99 737.12,-40.84"/>
<text text-anchor="middle" x="600.96" y="-88.56" font-family="Times,serif" font-size="14.00">HREADY &amp;&amp; HBURST &#160;&#160;&#160;&#160;&#160;&#160;&#160;&#160;&#160;&#160;&#160;&#160;&#160;&#160;</text>
</g>
<!-- BUSY -->
<g id="node4" class="node">
<title>BUSY</title>
<ellipse fill="none" stroke="black" cx="1025.61" cy="-69.28" rx="36.8" ry="36.8"/>
<text text-anchor="middle" x="1025.61" y="-65.08" font-family="Times,serif" font-size="14.00">BUSY</text>
</g>
<!-- NONSEQ&#45;&gt;BUSY -->
<g id="edge3" class="edge">
<title>NONSEQ&#45;&gt;BUSY</title>
<path fill="none" stroke="black" d="M414.11,-123.69C500.11,-138.76 684.38,-164.06 836.93,-137.28 888.34,-128.25 944.23,-106.31 981.53,-89.77"/>
<polygon fill="black" stroke="black" points="982.95,-92.97 990.63,-85.67 980.07,-86.59 982.95,-92.97"/>
<text text-anchor="middle" x="776.66" y="-152.64" font-family="Times,serif" font-size="14.00">HREADY &amp;&amp; !work</text>
</g>
<!-- SEQ&#45;&gt;IDLE -->
<g id="edge5" class="edge">
<title>SEQ&#45;&gt;IDLE</title>
<path fill="none" stroke="black" d="M747.09,-29.58C667.39,-30.47 435.81,-33.34 243.42,-38.48 195.66,-39.76 141.09,-41.8 103.11,-43.31"/>
<polygon fill="black" stroke="black" points="103.25,-39.8 93.4,-43.7 103.53,-46.8 103.25,-39.8"/>
<text text-anchor="middle" x="364.48" y="-42.68" font-family="Times,serif" font-size="14.00">HREADY &amp;&amp; burst_counter &gt;= HBURST</text>
</g>
<!-- SEQ&#45;&gt;SEQ -->
<g id="edge4" class="edge">
<title>SEQ&#45;&gt;SEQ</title>
<path fill="none" stroke="black" d="M764,-56.01C763.13,-67.13 767.34,-76.56 776.66,-76.56 782.48,-76.56 786.31,-72.88 788.15,-67.4"/>
<polygon fill="black" stroke="black" points="791.62,-67.82 789.16,-57.52 784.66,-67.11 791.62,-67.82"/>
<text text-anchor="middle" x="776.66" y="-80.76" font-family="Times,serif" font-size="14.00">HREADY &amp;&amp; burst_counter &lt; HBURST</text>
</g>
<!-- SEQ&#45;&gt;SEQ -->
<g id="edge10" class="edge">
<title>SEQ&#45;&gt;SEQ</title>
<path fill="none" stroke="black" d="M756.36,-50.68C745.15,-71.59 751.91,-94.56 776.66,-94.56 797.34,-94.56 805.46,-78.51 801.02,-61.02"/>
<polygon fill="black" stroke="black" points="804.42,-60.11 797.51,-52.08 797.91,-62.67 804.42,-60.11"/>
<text text-anchor="middle" x="776.66" y="-98.76" font-family="Times,serif" font-size="14.00">!HREADY</text>
</g>
<!-- SEQ&#45;&gt;BUSY -->
<g id="edge6" class="edge">
<title>SEQ&#45;&gt;BUSY</title>
<path fill="none" stroke="black" d="M805.41,-36.45C820.07,-40.06 838.39,-44.29 854.93,-47.28 896.16,-54.74 943.47,-60.65 977.64,-64.47"/>
<polygon fill="black" stroke="black" points="976.87,-67.9 987.19,-65.51 977.63,-60.94 976.87,-67.9"/>
<text text-anchor="middle" x="912.87" y="-67.55" font-family="Times,serif" font-size="14.00">!work</text>
</g>
<!-- BUSY&#45;&gt;SEQ -->
<g id="edge7" class="edge">
<title>BUSY&#45;&gt;SEQ</title>
<path fill="none" stroke="black" d="M999.15,-43.32C990.83,-36.5 981.06,-30.06 970.81,-26.48 919.8,-8.67 856.5,-14.38 816.58,-21.07"/>
<polygon fill="black" stroke="black" points="816.19,-17.58 806.97,-22.79 817.43,-24.47 816.19,-17.58"/>
<text text-anchor="middle" x="912.87" y="-30.68" font-family="Times,serif" font-size="14.00">HREADY &amp;&amp; work</text>
</g>
<!-- BUSY&#45;&gt;BUSY -->
<g id="edge11" class="edge">
<title>BUSY&#45;&gt;BUSY</title>
<path fill="none" stroke="black" d="M1004.69,-99.99C1003.11,-112.99 1010.08,-124.08 1025.61,-124.08 1036.28,-124.08 1042.91,-118.84 1045.5,-111.34"/>
<polygon fill="black" stroke="black" points="1048.98,-111.77 1046.39,-101.49 1042,-111.14 1048.98,-111.77"/>
<text text-anchor="middle" x="1025.61" y="-128.28" font-family="Times,serif" font-size="14.00">!HREADY</text>
</g>
</g>
</svg>
